<?xml version="1.0" encoding="UTF-8" standalone="no"?>
<svg
   width="64"
   height="64"
   viewBox="0 0 64 64"
   version="1.1"
   id="svg2"
   sodipodi:docname="bed.svg"
   inkscape:version="1.3.2 (091e20e, 2023-11-25)"
   xmlns:inkscape="http://www.inkscape.org/namespaces/inkscape"
   xmlns:sodipodi="http://sodipodi.sourceforge.net/DTD/sodipodi-0.dtd"
   xmlns="http://www.w3.org/2000/svg"
   xmlns:svg="http://www.w3.org/2000/svg">
  <defs
     id="defs2" />
  <sodipodi:namedview
     id="namedview2"
     pagecolor="#ffffff"
     bordercolor="#000000"
     borderopacity="0.25"
     inkscape:showpageshadow="2"
     inkscape:pageopacity="0.0"
     inkscape:pagecheckerboard="0"
     inkscape:deskcolor="#d1d1d1"
     inkscape:zoom="20.875"
     inkscape:cx="31.976048"
     inkscape:cy="32"
     inkscape:window-width="3770"
     inkscape:window-height="1536"
     inkscape:window-x="0"
     inkscape:window-y="0"
     inkscape:window-maximized="1"
     inkscape:current-layer="svg2" />
  <g
     id="surface1">
    <path
       style=" stroke:none;fill-rule:nonzero;fill:rgb(100%,100%,100%);fill-opacity:1;"
       d="M 61.332031 45.707031 L 61.332031 51.042969 L 58.667969 51.042969 C 58.667969 54.003906 56.292969 56.375 53.332031 56.375 C 50.375 56.375 48 54.003906 48 51.042969 L 16 51.042969 C 16 54.003906 13.625 56.375 10.667969 56.375 C 7.707031 56.375 5.332031 54.003906 5.332031 51.042969 L 2.667969 51.042969 L 2.667969 45.707031 Z M 61.332031 45.707031 "
       id="path1" />
    <path
       style="fill:#ffffff;fill-opacity:1;fill-rule:nonzero;stroke:none"
       d="m 42.898405,21.363515 -0.05078,0.02734 c 0.613282,0.71875 1.144532,1.574219 1.546875,2.453126 l 0.238281,0.507812 c 1.894532,4.503906 0.558594,9.707031 -2.933593,12.960938 -3.171875,2.90625 -7.597657,3.679687 -11.707031,3.144531 -3.890626,-0.480469 -7.464844,-2.933594 -9.519532,-6.320313 -0.613281,-1.039062 -1.144531,-2.210937 -1.414062,-3.414062 -0.34375,-0.984375 -0.453125,-1.945313 -0.53125,-2.933594 -0.242188,-4.265625 1.464844,-8.796875 4.691406,-11.464844 -1.464844,3.226563 -1.117188,7.253906 1.042969,10.054688 l 0.292969,0.34375 c 0.371093,0.320312 0.824218,0.429687 1.253906,0.242187 0.398437,-0.160156 0.71875,-0.5625 0.71875,-1.039062 l -0.1875,-0.589844 c -2.347656,-6.183594 -0.375,-13.410156 4.613281,-17.4921866 1.359375,-1.121094 3.039063,-2.132813 4.800781,-2.585938 -1.8125,3.625 -1.226562,8.3710936 1.679688,11.2265616 1.226562,1.253907 2.691406,2.078126 3.972656,3.253907 l 1.492188,1.625 m -6.078126,12.375 -0.02734,-0.02734 c 1.199219,-1.039063 1.867187,-2.828125 1.8125,-4.425781 l -0.07813,-0.855469 c -0.535156,-2.664063 -2.855469,-3.546875 -4.347656,-5.492187 -0.453126,-0.585938 -0.851563,-1.332032 -1.144532,-2.082032 -0.589844,1.335938 -0.640625,2.589844 -0.402344,4.027344 0.265626,1.519531 0.878907,2.828125 0.558594,4.402344 -0.425781,1.730468 -1.785156,3.464844 -4.15625,4.027344 1.332032,1.304687 3.492188,2.34375 5.652344,1.597656 0.691406,-0.1875 1.574219,-0.691406 2.132812,-1.171875"
       id="path2" />
  </g>
</svg>
