
<svg xmlns="http://www.w3.org/2000/svg" xmlns:xlink="http://www.w3.org/1999/xlink" width="64" height="64" viewBox="0 0 64 64" version="1.1">
<g id="surface1">
<path style=" stroke:none;fill-rule:nonzero;fill:rgb(100%,100%,100%);fill-opacity:1;" d="M 32 42.667969 C 34.933594 42.667969 37.332031 45.066406 37.332031 48 C 37.332031 50.933594 34.933594 53.332031 32 53.332031 C 29.066406 53.332031 26.667969 50.933594 26.667969 48 C 26.667969 45.066406 29.066406 42.667969 32 42.667969 M 32 26.667969 C 34.933594 26.667969 37.332031 29.066406 37.332031 32 C 37.332031 34.933594 34.933594 37.332031 32 37.332031 C 29.066406 37.332031 26.667969 34.933594 26.667969 32 C 26.667969 29.066406 29.066406 26.667969 32 26.667969 M 32 10.667969 C 34.933594 10.667969 37.332031 13.066406 37.332031 16 C 37.332031 18.933594 34.933594 21.332031 32 21.332031 C 29.066406 21.332031 26.667969 18.933594 26.667969 16 C 26.667969 13.066406 29.066406 10.667969 32 10.667969 M 16 42.667969 C 18.933594 42.667969 21.332031 45.066406 21.332031 48 C 21.332031 50.933594 18.933594 53.332031 16 53.332031 C 13.066406 53.332031 10.667969 50.933594 10.667969 48 C 10.667969 45.066406 13.066406 42.667969 16 42.667969 M 16 26.667969 C 18.933594 26.667969 21.332031 29.066406 21.332031 32 C 21.332031 34.933594 18.933594 37.332031 16 37.332031 C 13.066406 37.332031 10.667969 34.933594 10.667969 32 C 10.667969 29.066406 13.066406 26.667969 16 26.667969 M 16 10.667969 C 18.933594 10.667969 21.332031 13.066406 21.332031 16 C 21.332031 18.933594 18.933594 21.332031 16 21.332031 C 13.066406 21.332031 10.667969 18.933594 10.667969 16 C 10.667969 13.066406 13.066406 10.667969 16 10.667969 M 48 42.667969 C 50.933594 42.667969 53.332031 45.066406 53.332031 48 C 53.332031 50.933594 50.933594 53.332031 48 53.332031 C 45.066406 53.332031 42.667969 50.933594 42.667969 48 C 42.667969 45.066406 45.066406 42.667969 48 42.667969 M 48 26.667969 C 50.933594 26.667969 53.332031 29.066406 53.332031 32 C 53.332031 34.933594 50.933594 37.332031 48 37.332031 C 45.066406 37.332031 42.667969 34.933594 42.667969 32 C 42.667969 29.066406 45.066406 26.667969 48 26.667969 M 48 10.667969 C 50.933594 10.667969 53.332031 13.066406 53.332031 16 C 53.332031 18.933594 50.933594 21.332031 48 21.332031 C 45.066406 21.332031 42.667969 18.933594 42.667969 16 C 42.667969 13.066406 45.066406 10.667969 48 10.667969 Z M 48 10.667969 "/>
</g>
</svg>
