
<svg xmlns="http://www.w3.org/2000/svg" xmlns:xlink="http://www.w3.org/1999/xlink" width="64" height="64" viewBox="0 0 64 64" version="1.1">
<g id="surface1">
<path style=" stroke:none;fill-rule:nonzero;fill:rgb(100%,100%,100%);fill-opacity:1;" d="M 21.332031 38 L 12.667969 29.332031 L 18.667969 29.332031 C 19.332031 14.375 25.039062 2.667969 32 2.667969 C 37.332031 2.667969 42.054688 9.707031 44.132812 19.867188 C 54.292969 21.945312 61.332031 26.667969 61.332031 32 C 61.332031 36.878906 55.546875 41.148438 46.933594 43.464844 L 47.707031 38.054688 C 52.800781 36.585938 56 34.425781 56 32 C 56 29.171875 51.601562 26.667969 44.988281 25.332031 C 45.199219 27.441406 45.332031 29.679688 45.332031 32 C 45.332031 48.214844 39.359375 61.332031 32 61.332031 C 27.121094 61.332031 22.851562 55.546875 20.535156 46.933594 L 25.945312 47.707031 C 27.414062 52.800781 29.574219 56 32 56 C 36.425781 56 40 45.253906 40 32 C 40 29.332031 39.867188 26.800781 39.601562 24.398438 C 37.199219 24.132812 34.667969 24 32 24 L 27.039062 24.160156 L 27.8125 18.800781 L 32 18.667969 C 34.320312 18.667969 36.558594 18.800781 38.667969 19.011719 C 37.332031 12.398438 34.828125 8 32 8 C 27.894531 8 24.480469 17.332031 24 29.332031 L 30 29.332031 L 21.332031 38 M 38 42.667969 L 29.332031 51.332031 L 29.332031 45.332031 C 14.375 44.667969 2.667969 38.960938 2.667969 32 C 2.667969 27.121094 8.453125 22.851562 17.066406 20.535156 L 16.292969 25.945312 C 11.199219 27.414062 8 29.574219 8 32 C 8 36.105469 17.332031 39.519531 29.332031 40 L 29.332031 34 Z M 38 42.667969 "/>
</g>
</svg>
