
<svg xmlns="http://www.w3.org/2000/svg" xmlns:xlink="http://www.w3.org/1999/xlink" width="64" height="64" viewBox="0 0 64 64" version="1.1">
<g id="surface1">
<path style=" stroke:none;fill-rule:nonzero;fill:rgb(100%,100%,100%);fill-opacity:1;" d="M 32 53.332031 C 43.734375 53.332031 53.332031 43.734375 53.332031 32 C 53.332031 20.265625 43.734375 10.667969 32 10.667969 C 20.265625 10.667969 10.667969 20.265625 10.667969 32 C 10.667969 43.734375 20.265625 53.332031 32 53.332031 M 32 5.332031 C 46.667969 5.332031 58.667969 17.332031 58.667969 32 C 58.667969 46.667969 46.667969 58.667969 32 58.667969 C 17.332031 58.667969 5.332031 46.667969 5.332031 32 C 5.332031 17.332031 17.332031 5.332031 32 5.332031 M 45.332031 30.667969 L 45.332031 34.667969 L 29.332031 34.667969 L 29.332031 18.667969 L 33.332031 18.667969 L 33.332031 30.667969 Z M 45.332031 30.667969 "/>
</g>
</svg>
