
<svg xmlns="http://www.w3.org/2000/svg" xmlns:xlink="http://www.w3.org/1999/xlink" width="64" height="64" viewBox="0 0 64 64" version="1.1">
<g id="surface1">
<path style=" stroke:none;fill-rule:nonzero;fill:rgb(49%,88%,100%);fill-opacity:1;" d="M 55.441406 37.199219 L 49.226562 38.851562 L 43.894531 35.839844 L 43.894531 28.160156 L 49.226562 25.148438 L 55.441406 26.800781 L 56.828125 21.652344 L 52.105469 20.398438 L 53.332031 15.679688 L 48.1875 14.292969 L 46.535156 20.507812 L 41.199219 23.519531 L 34.667969 19.679688 L 34.667969 13.652344 L 39.226562 9.09375 L 35.441406 5.332031 L 32 8.773438 L 28.558594 5.332031 L 24.773438 9.09375 L 29.332031 13.652344 L 29.332031 19.679688 L 22.667969 23.519531 L 17.332031 20.507812 L 15.785156 14.292969 L 10.667969 15.679688 L 11.921875 20.398438 L 7.199219 21.652344 L 8.585938 26.800781 L 14.800781 25.148438 L 20.132812 28.160156 L 20.132812 35.867188 L 14.800781 38.878906 L 8.585938 37.226562 L 7.199219 42.375 L 11.921875 43.625 L 10.667969 48.320312 L 15.8125 49.707031 L 17.464844 43.492188 L 22.800781 40.480469 L 29.332031 44.320312 L 29.332031 50.347656 L 24.773438 54.90625 L 28.558594 58.667969 L 32 55.226562 L 35.441406 58.667969 L 39.199219 54.90625 L 34.667969 50.347656 L 34.667969 44.320312 L 41.332031 40.453125 L 46.667969 43.464844 L 48.320312 49.679688 L 53.332031 48.320312 L 52.078125 43.601562 L 56.800781 42.347656 L 55.441406 37.199219 M 25.332031 28.160156 L 32 24.292969 L 38.667969 28.160156 L 38.667969 35.839844 L 32 39.707031 L 25.332031 35.839844 Z M 25.332031 28.160156 "/>
</g>
</svg>
