
<svg xmlns="http://www.w3.org/2000/svg" xmlns:xlink="http://www.w3.org/1999/xlink" width="64" height="64" viewBox="0 0 64 64" version="1.1">
<g id="surface1">
<path style=" stroke:none;fill-rule:nonzero;fill:rgb(81%,13%,16%);fill-opacity:1;" d="M 29.332031 40 L 34.667969 40 L 34.667969 45.332031 L 29.332031 45.332031 L 29.332031 40 M 29.332031 18.667969 L 34.667969 18.667969 L 34.667969 34.667969 L 29.332031 34.667969 L 29.332031 18.667969 M 32 8 C 18.746094 8 8 18.746094 8 32 C 8 45.253906 18.746094 56 32 56 C 45.253906 56 56 45.253906 56 32 C 56 18.746094 45.253906 8 32 8 M 32 50.667969 C 21.707031 50.667969 13.332031 42.292969 13.332031 32 C 13.332031 21.707031 21.707031 13.332031 32 13.332031 C 42.292969 13.332031 50.667969 21.707031 50.667969 32 C 50.667969 42.292969 42.292969 50.667969 32 50.667969 M 54.667969 54.667969 C 60.425781 48.828125 64 40.828125 64 32 C 64 23.171875 60.425781 15.171875 54.667969 9.332031 L 51.785156 12.214844 C 56.851562 17.332031 60 24.292969 60 32 C 60 39.734375 56.851562 46.667969 51.785156 51.785156 L 54.667969 54.667969 M 12.214844 51.785156 C 7.148438 46.667969 4 39.734375 4 32 C 4 24.292969 7.148438 17.332031 12.214844 12.214844 L 9.332031 9.332031 C 3.574219 15.171875 0 23.171875 0 32 C 0 40.828125 3.574219 48.828125 9.332031 54.667969 Z M 12.214844 51.785156 "/>
</g>
</svg>
