
<svg xmlns="http://www.w3.org/2000/svg" xmlns:xlink="http://www.w3.org/1999/xlink" width="64" height="64" viewBox="0 0 64 64" version="1.1">
<g id="surface1">
<path style=" stroke:none;fill-rule:nonzero;fill:rgb(100%,100%,100%);fill-opacity:1;" d="M 10.667969 5.332031 L 37.332031 5.332031 L 37.332031 18.667969 L 42.667969 18.667969 L 42.667969 34.667969 L 36 34.667969 L 26.667969 45.332031 L 21.332031 45.332031 L 12 34.667969 L 5.332031 34.667969 L 5.332031 18.667969 L 10.667969 18.667969 L 10.667969 5.332031 M 61.332031 38.667969 L 57.601562 44.535156 L 61.332031 50.398438 L 56 58.667969 L 51.199219 56.265625 L 55.199219 50.398438 L 51.199219 44.535156 L 56.535156 36.265625 L 61.332031 38.667969 M 49.867188 38.667969 L 45.867188 44.535156 L 49.867188 50.398438 L 44.535156 58.667969 L 39.734375 56.265625 L 43.464844 50.398438 L 39.734375 44.535156 L 45.066406 36.265625 L 49.867188 38.667969 "/>
</g>
</svg>
