
<svg xmlns="http://www.w3.org/2000/svg" xmlns:xlink="http://www.w3.org/1999/xlink" width="64" height="64" viewBox="0 0 64 64" version="1.1">
<g id="surface1">
<path style=" stroke:none;fill-rule:nonzero;fill:rgb(100%,100%,100%);fill-opacity:1;" d="M 34.667969 10.851562 L 34.667969 2.667969 L 22.535156 14.800781 L 34.667969 26.667969 L 34.667969 16.238281 C 42.238281 17.519531 48 24.078125 48 32 C 48 39.921875 42.238281 46.480469 34.667969 47.761719 L 34.667969 53.148438 C 45.199219 51.839844 53.332031 42.878906 53.332031 32 C 53.332031 21.121094 45.199219 12.160156 34.667969 10.851562 M 18.933594 48.851562 C 22.027344 51.253906 25.625 52.691406 29.332031 53.148438 L 29.332031 47.734375 C 27.011719 47.332031 24.773438 46.425781 22.773438 44.988281 L 18.933594 48.851562 M 16.238281 34.667969 L 10.851562 34.667969 C 11.308594 38.375 12.773438 41.945312 15.171875 45.039062 L 18.933594 41.253906 C 17.546875 39.253906 16.613281 37.011719 16.238281 34.667969 M 18.960938 22.746094 L 15.199219 18.960938 C 12.800781 22.054688 11.308594 25.625 10.851562 29.332031 L 16.238281 29.332031 C 16.613281 27.011719 17.546875 24.746094 18.960938 22.746094 Z M 18.960938 22.746094 "/>
</g>
</svg>
