
<svg xmlns="http://www.w3.org/2000/svg" xmlns:xlink="http://www.w3.org/1999/xlink" width="64" height="64" viewBox="0 0 64 64" version="1.1">
<g id="surface1">
<path style=" stroke:none;fill-rule:nonzero;fill:rgb(100%,100%,100%);fill-opacity:1;" d="M 32 29.332031 C 30.527344 29.332031 29.332031 30.527344 29.332031 32 C 29.332031 33.472656 30.527344 34.667969 32 34.667969 C 33.472656 34.667969 34.667969 33.472656 34.667969 32 C 34.667969 30.527344 33.472656 29.332031 32 29.332031 M 33.332031 5.332031 C 45.332031 5.332031 45.625 14.851562 39.332031 18 C 36.691406 19.308594 35.519531 22.105469 35.011719 24.585938 C 36.292969 25.121094 37.414062 25.945312 38.265625 27.011719 C 48.132812 21.679688 58.746094 23.785156 58.746094 33.332031 C 58.746094 45.332031 49.226562 45.601562 46.078125 39.28125 C 44.746094 36.640625 41.921875 35.464844 39.441406 34.960938 C 38.90625 36.238281 38.078125 37.332031 37.011719 38.238281 C 42.320312 48.078125 40.214844 58.667969 30.667969 58.667969 C 18.667969 58.667969 18.425781 49.121094 24.71875 45.972656 C 27.332031 44.667969 28.507812 41.894531 29.039062 39.441406 C 27.734375 38.90625 26.585938 38.054688 25.734375 36.988281 C 15.894531 42.265625 5.332031 40.1875 5.332031 30.667969 C 5.332031 18.667969 14.828125 18.375 17.972656 24.691406 C 19.308594 27.332031 22.105469 28.480469 24.585938 28.988281 C 25.09375 27.707031 25.945312 26.585938 27.039062 25.734375 C 21.734375 15.894531 23.839844 5.332031 33.332031 5.332031 Z M 33.332031 5.332031 "/>
</g>
</svg>
