
<svg xmlns="http://www.w3.org/2000/svg" xmlns:xlink="http://www.w3.org/1999/xlink" width="64" height="64" viewBox="0 0 64 64" version="1.1">
<g id="surface1">
<path style=" stroke:none;fill-rule:nonzero;fill:rgb(100%,100%,100%);fill-opacity:1;" d="M 33.332031 5.332031 C 25.707031 5.332031 22.851562 12.132812 24.773438 19.921875 L 40 35.09375 C 42.320312 35.652344 44.828125 36.828125 46.078125 39.28125 C 49.226562 45.601562 58.746094 45.332031 58.746094 33.332031 C 58.746094 23.785156 48.132812 21.679688 38.265625 27.011719 C 37.414062 25.945312 36.292969 25.121094 35.011719 24.585938 C 35.519531 22.105469 36.691406 19.308594 39.332031 18 C 45.625 14.851562 45.332031 5.332031 33.332031 5.332031 M 8.746094 10.667969 L 5.332031 14.054688 L 11.921875 20.613281 C 8.585938 20.640625 5.332031 23.652344 5.332031 30.667969 C 5.332031 40.1875 15.894531 42.265625 25.734375 36.988281 C 26.585938 38.054688 27.734375 38.90625 29.039062 39.441406 C 28.507812 41.894531 27.332031 44.667969 24.71875 45.972656 C 18.425781 49.121094 18.667969 58.667969 30.667969 58.667969 C 36.800781 58.667969 39.839844 54.292969 39.839844 48.558594 L 49.945312 58.667969 L 53.332031 55.253906 Z M 8.746094 10.667969 "/>
</g>
</svg>
