
<svg xmlns="http://www.w3.org/2000/svg" xmlns:xlink="http://www.w3.org/1999/xlink" width="64" height="64" viewBox="0 0 64 64" version="1.1">
<g id="surface1">
<path style=" stroke:none;fill-rule:nonzero;fill:rgb(100%,100%,100%);fill-opacity:1;" d="M 34.667969 50.667969 C 34.667969 46.90625 36 43.464844 38.132812 40.746094 C 37.785156 39.921875 37.414062 39.066406 36.960938 38.238281 C 38.027344 37.332031 38.851562 36.238281 39.386719 34.960938 C 40.691406 35.226562 42.078125 35.707031 43.332031 36.453125 C 45.519531 35.332031 48 34.667969 50.667969 34.667969 C 53.464844 34.667969 56.078125 35.386719 58.375 36.640625 C 58.535156 35.652344 58.667969 34.558594 58.667969 33.332031 C 58.667969 23.785156 48.078125 21.679688 38.214844 27.011719 C 37.332031 25.945312 36.238281 25.121094 34.960938 24.585938 C 35.464844 22.105469 36.640625 19.308594 39.28125 18 C 45.574219 14.851562 45.332031 5.332031 33.332031 5.332031 C 23.8125 5.332031 21.707031 15.894531 27.011719 25.734375 C 25.921875 26.585938 25.066406 27.707031 24.558594 28.988281 C 22.078125 28.480469 19.28125 27.332031 17.945312 24.691406 C 14.828125 18.375 5.332031 18.667969 5.332031 30.667969 C 5.332031 40.1875 15.867188 42.265625 25.707031 36.988281 C 26.558594 38.054688 27.707031 38.90625 29.011719 39.441406 C 28.480469 41.894531 27.308594 44.667969 24.691406 45.972656 C 18.398438 49.121094 18.667969 58.667969 30.667969 58.667969 C 32.828125 58.667969 34.667969 58.078125 36 57.09375 C 35.171875 55.121094 34.667969 52.960938 34.667969 50.667969 M 32 34.667969 C 30.480469 34.667969 29.332031 33.464844 29.332031 32 C 29.332031 30.535156 30.480469 29.332031 32 29.332031 C 33.441406 29.332031 34.667969 30.535156 34.667969 32 C 34.667969 33.464844 33.441406 34.667969 32 34.667969 M 53.332031 40 L 53.332031 48 L 61.332031 48 L 61.332031 53.332031 L 53.332031 53.332031 L 53.332031 61.332031 L 48 61.332031 L 48 53.332031 L 40 53.332031 L 40 48 L 48 48 L 48 40 Z M 53.332031 40 "/>
</g>
</svg>
