
<svg xmlns="http://www.w3.org/2000/svg" xmlns:xlink="http://www.w3.org/1999/xlink" width="64" height="64" viewBox="0 0 64 64" version="1.1">
<g id="surface1">
<path style=" stroke:none;fill-rule:nonzero;fill:rgb(100%,100%,100%);fill-opacity:1;" d="M 24 8 C 15.171875 8 8.375 15.171875 8 24 L 8 56 L 32 56 L 32 35.894531 C 34.933594 38.535156 38.667969 40 42.667969 40 C 51.492188 40 58.667969 32.828125 58.667969 24 C 58.667969 15.171875 51.492188 8 42.667969 8 L 24 8 M 42.667969 13.332031 C 48.558594 13.332031 53.332031 18.105469 53.332031 24 C 53.332031 29.894531 48.558594 34.667969 42.667969 34.667969 C 36.773438 34.667969 32 29.894531 32 24 C 32 18.105469 36.773438 13.332031 42.667969 13.332031 M 42.667969 19.332031 C 40.078125 19.332031 38 21.414062 38 24 C 38 26.585938 40.078125 28.667969 42.667969 28.667969 C 45.253906 28.667969 47.332031 26.585938 47.332031 24 C 47.332031 21.414062 45.253906 19.332031 42.667969 19.332031 M 10.667969 32 L 13.332031 32 L 13.332031 34.667969 L 10.667969 34.667969 L 10.667969 32 M 16 32 L 18.667969 32 L 18.667969 34.667969 L 16 34.667969 L 16 32 M 21.332031 32 L 24 32 L 24 34.667969 L 21.332031 34.667969 L 21.332031 32 M 26.667969 32 L 29.332031 32 L 29.332031 34.667969 L 26.667969 34.667969 Z M 26.667969 32 "/>
</g>
</svg>
