
<svg xmlns="http://www.w3.org/2000/svg" xmlns:xlink="http://www.w3.org/1999/xlink" width="64" height="64" viewBox="0 0 64 64" version="1.1">
<g id="surface1">
<path style=" stroke:none;fill-rule:nonzero;fill:rgb(100%,100%,100%);fill-opacity:1;" d="M 21.332031 34.667969 C 16.375 34.667969 12.238281 38.078125 11.039062 42.667969 L 5.332031 42.667969 L 5.332031 48 L 11.039062 48 C 12.238281 52.585938 16.375 56 21.332031 56 C 26.292969 56 30.425781 52.585938 31.625 48 L 58.667969 48 L 58.667969 42.667969 L 31.625 42.667969 C 30.425781 38.078125 26.292969 34.667969 21.332031 34.667969 M 21.332031 50.667969 C 18.398438 50.667969 16 48.265625 16 45.332031 C 16 42.398438 18.398438 40 21.332031 40 C 24.265625 40 26.667969 42.398438 26.667969 45.332031 C 26.667969 48.265625 24.265625 50.667969 21.332031 50.667969 M 52.960938 16 C 51.761719 11.414062 47.625 8 42.667969 8 C 37.707031 8 33.574219 11.414062 32.375 16 L 5.332031 16 L 5.332031 21.332031 L 32.375 21.332031 C 33.574219 25.921875 37.707031 29.332031 42.667969 29.332031 C 47.625 29.332031 51.761719 25.921875 52.960938 21.332031 L 58.667969 21.332031 L 58.667969 16 L 52.960938 16 M 42.667969 24 C 39.734375 24 37.332031 21.601562 37.332031 18.667969 C 37.332031 15.734375 39.734375 13.332031 42.667969 13.332031 C 45.601562 13.332031 48 15.734375 48 18.667969 C 48 21.601562 45.601562 24 42.667969 24 Z M 42.667969 24 "/>
</g>
</svg>
