
<svg xmlns="http://www.w3.org/2000/svg" xmlns:xlink="http://www.w3.org/1999/xlink" width="64" height="64" viewBox="0 0 64 64" version="1.1">
<g id="surface1">
<path style=" stroke:none;fill-rule:nonzero;fill:rgb(100%,100%,100%);fill-opacity:1;" d="M 32 32 L 32 53.011719 C 32.105469 53.8125 31.839844 54.667969 31.226562 55.226562 C 30.1875 56.265625 28.507812 56.265625 27.464844 55.226562 L 22.105469 49.867188 C 21.492188 49.253906 21.226562 48.425781 21.332031 47.652344 L 21.332031 32 L 21.253906 32 L 5.894531 12.320312 C 4.988281 11.171875 5.199219 9.492188 6.347656 8.585938 C 6.851562 8.214844 7.414062 8 8 8 L 45.332031 8 C 45.921875 8 46.480469 8.214844 46.988281 8.585938 C 48.132812 9.492188 48.347656 11.171875 47.441406 12.320312 L 32.078125 32 L 32 32 M 40 45.332031 L 48 45.332031 L 48 37.332031 L 53.332031 37.332031 L 53.332031 45.332031 L 61.332031 45.332031 L 61.332031 50.667969 L 53.332031 50.667969 L 53.332031 58.667969 L 48 58.667969 L 48 50.667969 L 40 50.667969 Z M 40 45.332031 "/>
</g>
</svg>
