
<svg xmlns="http://www.w3.org/2000/svg" xmlns:xlink="http://www.w3.org/1999/xlink" width="64" height="64" viewBox="0 0 64 64" version="1.1">
<g id="surface1">
<path style=" stroke:none;fill-rule:nonzero;fill:rgb(100%,100%,100%);fill-opacity:1;" d="M 45.332031 5.332031 L 18.667969 5.332031 C 15.734375 5.332031 13.332031 7.734375 13.332031 10.667969 L 13.332031 50.667969 C 13.332031 53.625 15.734375 56 18.667969 56 L 18.667969 58.667969 L 24 58.667969 L 24 56 L 40 56 L 40 58.667969 L 45.332031 58.667969 L 45.332031 56 C 48.292969 56 50.667969 53.625 50.667969 50.667969 L 50.667969 10.667969 C 50.667969 7.734375 48.292969 5.332031 45.332031 5.332031 M 45.332031 50.667969 L 18.667969 50.667969 L 18.667969 10.667969 L 45.332031 10.667969 L 45.332031 50.667969 M 26.667969 40 L 21.332031 40 L 21.332031 26.667969 L 26.667969 26.667969 Z M 26.667969 40 "/>
</g>
</svg>
