
<svg xmlns="http://www.w3.org/2000/svg" xmlns:xlink="http://www.w3.org/1999/xlink" width="64" height="64" viewBox="0 0 64 64" version="1.1">
<g id="surface1">
<path style=" stroke:none;fill-rule:nonzero;fill:rgb(100%,100%,100%);fill-opacity:1;" d="M 29.332031 24 L 34.667969 24 L 34.667969 18.667969 L 29.332031 18.667969 M 32 53.332031 C 20.238281 53.332031 10.667969 43.761719 10.667969 32 C 10.667969 20.238281 20.238281 10.667969 32 10.667969 C 43.761719 10.667969 53.332031 20.238281 53.332031 32 C 53.332031 43.761719 43.761719 53.332031 32 53.332031 M 32 5.332031 C 17.273438 5.332031 5.332031 17.273438 5.332031 32 C 5.332031 46.726562 17.273438 58.667969 32 58.667969 C 46.726562 58.667969 58.667969 46.726562 58.667969 32 C 58.667969 17.273438 46.726562 5.332031 32 5.332031 M 29.332031 45.332031 L 34.667969 45.332031 L 34.667969 29.332031 L 29.332031 29.332031 Z M 29.332031 45.332031 "/>
</g>
</svg>
