
<svg xmlns="http://www.w3.org/2000/svg" xmlns:xlink="http://www.w3.org/1999/xlink" width="64" height="64" viewBox="0 0 64 64" version="1.1">
<g id="surface1">
<path style=" stroke:none;fill-rule:nonzero;fill:rgb(100%,100%,100%);fill-opacity:1;" d="M 42.667969 50.667969 L 21.332031 50.667969 L 21.332031 13.332031 L 42.667969 13.332031 M 44 8 L 20 8 C 17.789062 8 16 9.789062 16 12 L 16 52 C 16 54.210938 17.789062 56 20 56 L 44 56 C 46.210938 56 48 54.210938 48 52 L 48 12 C 48 9.789062 46.210938 8 44 8 M 50.667969 45.332031 L 56 45.332031 L 56 18.667969 L 50.667969 18.667969 M 58.667969 24 L 58.667969 40 L 64 40 L 64 24 M 8 45.332031 L 13.332031 45.332031 L 13.332031 18.667969 L 8 18.667969 M 0 40 L 5.332031 40 L 5.332031 24 L 0 24 Z M 0 40 "/>
</g>
</svg>
