
<svg xmlns="http://www.w3.org/2000/svg" xmlns:xlink="http://www.w3.org/1999/xlink" width="64" height="64" viewBox="0 0 64 64" version="1.1">
<g id="surface1">
<path style=" stroke:none;fill-rule:nonzero;fill:rgb(100%,100%,100%);fill-opacity:1;" d="M 32 5.332031 C 21.691406 5.332031 13.332031 13.691406 13.332031 24 C 13.332031 30.347656 16.507812 35.921875 21.332031 39.308594 L 21.332031 45.332031 C 21.332031 46.804688 22.527344 48 24 48 L 40 48 C 41.472656 48 42.667969 46.804688 42.667969 45.332031 L 42.667969 39.308594 C 47.492188 35.921875 50.667969 30.347656 50.667969 24 C 50.667969 13.691406 42.308594 5.332031 32 5.332031 M 24 56 C 24 57.472656 25.195312 58.667969 26.667969 58.667969 L 37.332031 58.667969 C 38.804688 58.667969 40 57.472656 40 56 L 40 53.332031 L 24 53.332031 Z M 24 56 "/>
</g>
</svg>
