
<svg xmlns="http://www.w3.org/2000/svg" xmlns:xlink="http://www.w3.org/1999/xlink" width="64" height="64" viewBox="0 0 64 64" version="1.1">
<g id="surface1">
<path style=" stroke:none;fill-rule:nonzero;fill:rgb(100%,100%,100%);fill-opacity:1;" d="M 32 5.332031 C 26.027344 5.332031 20.746094 8.132812 17.332031 12.480469 L 43.492188 38.667969 C 47.839844 35.226562 50.667969 29.972656 50.667969 24 C 50.667969 13.691406 42.308594 5.332031 32 5.332031 M 8.746094 10.667969 L 5.332031 14.054688 L 13.441406 22.132812 C 13.332031 22.746094 13.332031 23.359375 13.332031 24 C 13.332031 30.347656 16.507812 35.921875 21.332031 39.308594 L 21.332031 45.332031 C 21.332031 46.804688 22.527344 48 24 48 L 39.28125 48 L 49.945312 58.667969 L 53.332031 55.253906 L 8.746094 10.667969 M 24 53.332031 L 24 56 C 24 57.472656 25.195312 58.667969 26.667969 58.667969 L 37.332031 58.667969 C 38.804688 58.667969 40 57.472656 40 56 L 40 53.332031 Z M 24 53.332031 "/>
</g>
</svg>
