
<svg xmlns="http://www.w3.org/2000/svg" xmlns:xlink="http://www.w3.org/1999/xlink" width="64" height="64" viewBox="0 0 64 64" version="1.1">
<g id="surface1">
<path style=" stroke:none;fill-rule:nonzero;fill:rgb(100%,100%,100%);fill-opacity:1;" d="M 48 40 C 48 46.933594 44.800781 53.066406 39.734375 56.800781 L 32.800781 49.867188 L 36.535156 46.132812 L 39.734375 49.332031 C 41.066406 47.464844 42.132812 45.066406 42.398438 42.667969 L 37.332031 42.667969 L 37.332031 37.332031 L 42.398438 37.332031 C 41.867188 34.933594 41.066406 32.800781 39.734375 30.667969 L 36.535156 33.867188 L 32.800781 30.132812 L 36 26.933594 C 34.132812 25.601562 31.734375 24.535156 29.332031 24.265625 L 29.332031 29.332031 L 24 29.332031 L 24 24.265625 C 21.601562 24.800781 19.464844 25.601562 17.332031 26.933594 L 25.332031 34.933594 C 25.867188 34.933594 26.132812 34.667969 26.667969 34.667969 C 29.625 34.667969 32 37.066406 32 40 C 32 42.933594 29.625 45.332031 26.667969 45.332031 C 23.707031 45.332031 21.332031 42.960938 21.332031 40 C 21.332031 39.464844 21.332031 39.199219 21.601562 38.667969 L 13.601562 30.667969 C 12.265625 32.535156 11.199219 34.933594 10.933594 37.332031 L 16 37.332031 L 16 42.667969 L 10.933594 42.667969 C 11.464844 45.066406 12.265625 47.199219 13.601562 49.332031 L 16.800781 46.132812 L 20.535156 49.867188 L 13.601562 56.800781 C 8.535156 53.066406 5.332031 46.933594 5.332031 40 C 5.332031 28.214844 14.878906 18.667969 26.667969 18.667969 C 38.453125 18.667969 48 28.214844 48 40 M 61.332031 13.332031 C 61.332031 8.90625 57.761719 5.332031 53.332031 5.332031 C 48.90625 5.332031 45.332031 8.90625 45.332031 13.332031 C 45.332031 16.800781 47.574219 19.734375 50.667969 20.851562 L 50.667969 29.332031 L 56 29.332031 L 56 20.851562 C 59.09375 19.734375 61.332031 16.800781 61.332031 13.332031 M 53.332031 16 C 51.867188 16 50.667969 14.800781 50.667969 13.332031 C 50.667969 11.867188 51.867188 10.667969 53.332031 10.667969 C 54.800781 10.667969 56 11.867188 56 13.332031 C 56 14.800781 54.800781 16 53.332031 16 Z M 53.332031 16 "/>
</g>
</svg>
