
<svg xmlns="http://www.w3.org/2000/svg" xmlns:xlink="http://www.w3.org/1999/xlink" width="64" height="64" viewBox="0 0 64 64" version="1.1">
<g id="surface1">
<path style=" stroke:none;fill-rule:nonzero;fill:rgb(100%,100%,100%);fill-opacity:1;" d="M 32 26.667969 C 34.960938 26.667969 37.332031 29.066406 37.332031 32 C 37.332031 34.960938 34.960938 37.332031 32 37.332031 C 29.066406 37.332031 26.667969 34.960938 26.667969 32 C 26.667969 29.066406 29.066406 26.667969 32 26.667969 M 13.332031 8 L 50.667969 8 C 53.625 8 56 10.398438 56 13.332031 L 56 45.332031 L 45.066406 45.332031 C 48.535156 41.945312 50.667969 37.226562 50.667969 32 C 50.667969 21.679688 42.320312 13.332031 32 13.332031 C 21.679688 13.332031 13.332031 21.679688 13.332031 32 C 13.332031 42.320312 21.679688 50.667969 32 50.667969 L 56 50.667969 C 56 53.625 53.625 56 50.667969 56 L 13.332031 56 C 10.398438 56 8 53.625 8 50.667969 L 8 13.332031 C 8 10.398438 10.398438 8 13.332031 8 Z M 13.332031 8 "/>
</g>
</svg>
