
<svg xmlns="http://www.w3.org/2000/svg" xmlns:xlink="http://www.w3.org/1999/xlink" width="64" height="64" viewBox="0 0 64 64" version="1.1">
<g id="surface1">
<path style=" stroke:none;fill-rule:nonzero;fill:rgb(100%,100%,100%);fill-opacity:1;" d="M 6.667969 10.054688 L 18.320312 21.707031 L 13.332031 26.667969 L 13.332031 34.667969 L 8 34.667969 L 8 26.667969 L 2.667969 26.667969 L 2.667969 48 L 8 48 L 8 40 L 13.332031 40 L 13.332031 48 L 21.332031 48 L 26.667969 53.332031 L 48 53.332031 L 48 51.386719 L 56.613281 60 L 60 56.585938 L 10.078125 6.667969 L 6.667969 10.054688 M 42.667969 48 L 29.332031 48 L 24 42.667969 L 18.667969 42.667969 L 18.667969 29.332031 L 21.332031 26.667969 L 23.28125 26.667969 L 42.667969 46.054688 L 42.667969 48 M 61.332031 24 L 61.332031 50.667969 L 60.851562 50.667969 L 42.667969 32.480469 L 42.667969 26.667969 L 36.851562 26.667969 L 20.851562 10.667969 L 40 10.667969 L 40 16 L 32 16 L 32 21.332031 L 48 21.332031 L 48 32 L 53.332031 32 L 53.332031 24 Z M 61.332031 24 "/>
</g>
</svg>
