
<svg xmlns="http://www.w3.org/2000/svg" xmlns:xlink="http://www.w3.org/1999/xlink" width="64" height="64" viewBox="0 0 64 64" version="1.1">
<g id="surface1">
<path style=" stroke:none;fill-rule:nonzero;fill:rgb(100%,100%,100%);fill-opacity:1;" d="M 32 56 L 41.601562 43.199219 C 38.933594 41.199219 35.601562 40 32 40 C 28.398438 40 25.066406 41.199219 22.398438 43.199219 L 32 56 M 32 8 C 21.199219 8 11.226562 11.574219 3.199219 17.601562 L 8 24 C 14.667969 18.988281 22.988281 16 32 16 C 41.011719 16 49.332031 18.988281 56 24 L 60.800781 17.601562 C 52.773438 11.574219 42.800781 8 32 8 M 32 24 C 24.800781 24 18.160156 26.375 12.800781 30.398438 L 17.601562 36.800781 C 21.601562 33.785156 26.585938 32 32 32 C 37.414062 32 42.398438 33.785156 46.398438 36.800781 L 51.199219 30.398438 C 45.839844 26.375 39.199219 24 32 24 Z M 32 24 "/>
</g>
</svg>
