
<svg xmlns="http://www.w3.org/2000/svg" xmlns:xlink="http://www.w3.org/1999/xlink" width="64" height="64" viewBox="0 0 64 64" version="1.1">
<g id="surface1">
<path style=" stroke:none;fill-rule:nonzero;fill:rgb(100%,100%,100%);fill-opacity:1;" d="M 32 48 C 32 49.867188 32.320312 51.625 32.90625 53.332031 C 32.613281 53.332031 32.320312 53.332031 32 53.332031 C 23.171875 53.332031 16 46.160156 16 37.332031 C 16 26.667969 32 8.667969 32 8.667969 C 32 8.667969 43.492188 21.601562 46.988281 32 C 38.667969 32.585938 32 39.519531 32 48 M 50.667969 45.332031 L 50.667969 37.332031 L 45.332031 37.332031 L 45.332031 45.332031 L 37.332031 45.332031 L 37.332031 50.667969 L 45.332031 50.667969 L 45.332031 58.667969 L 50.667969 58.667969 L 50.667969 50.667969 L 58.667969 50.667969 L 58.667969 45.332031 Z M 50.667969 45.332031 "/>
</g>
</svg>
