
<svg xmlns="http://www.w3.org/2000/svg" xmlns:xlink="http://www.w3.org/1999/xlink" width="64" height="64" viewBox="0 0 64 64" version="1.1">
<g id="surface1">
<path style=" stroke:none;fill-rule:nonzero;fill:rgb(100%,100%,100%);fill-opacity:1;" d="M 48 8 L 16 8 L 16 18.667969 L 48 18.667969 M 50.667969 32 C 49.195312 32 48 30.804688 48 29.332031 C 48 27.859375 49.195312 26.667969 50.667969 26.667969 C 52.140625 26.667969 53.332031 27.859375 53.332031 29.332031 C 53.332031 30.804688 52.140625 32 50.667969 32 M 42.667969 50.667969 L 21.332031 50.667969 L 21.332031 37.332031 L 42.667969 37.332031 M 50.667969 21.332031 L 13.332031 21.332031 C 8.914062 21.332031 5.332031 24.914062 5.332031 29.332031 L 5.332031 45.332031 L 16 45.332031 L 16 56 L 48 56 L 48 45.332031 L 58.667969 45.332031 L 58.667969 29.332031 C 58.667969 24.914062 55.085938 21.332031 50.667969 21.332031 Z M 50.667969 21.332031 "/>
</g>
</svg>
