
<svg xmlns="http://www.w3.org/2000/svg" xmlns:xlink="http://www.w3.org/1999/xlink" width="64" height="64" viewBox="0 0 64 64" version="1.1">
<g id="surface1">
<path style=" stroke:none;fill-rule:nonzero;fill:rgb(100%,100%,100%);fill-opacity:1;" d="M 32 10.667969 C 37.601562 10.667969 42.933594 12.800781 46.933594 16.800781 C 55.199219 25.066406 55.199219 38.667969 46.933594 46.933594 C 42.132812 52 35.464844 53.867188 29.066406 53.066406 L 30.398438 47.734375 C 34.933594 48.265625 39.734375 46.667969 43.199219 43.199219 C 49.332031 37.066406 49.332031 26.933594 43.199219 20.535156 C 40.265625 17.601562 36 16 32 16 L 32 28.265625 L 18.667969 14.933594 L 32 1.601562 L 32 10.667969 M 16.800781 46.933594 C 9.867188 40 8.800781 29.332031 13.601562 21.066406 L 17.601562 25.066406 C 14.667969 30.933594 15.734375 38.398438 20.800781 43.199219 C 22.132812 44.535156 23.734375 45.601562 25.601562 46.398438 L 24 51.734375 C 21.332031 50.667969 18.933594 49.066406 16.800781 46.933594 Z M 16.800781 46.933594 "/>
</g>
</svg>
