
<svg xmlns="http://www.w3.org/2000/svg" xmlns:xlink="http://www.w3.org/1999/xlink" width="64" height="64" viewBox="0 0 64 64" version="1.1">
<g id="surface1">
<path style=" stroke:none;fill-rule:nonzero;fill:rgb(100%,100%,100%);fill-opacity:1;" d="M 45.039062 41.332031 L 48.828125 45.039062 C 51.226562 41.945312 52.691406 38.375 53.148438 34.667969 L 47.761719 34.667969 C 47.386719 36.988281 46.480469 39.253906 45.039062 41.332031 M 34.667969 47.734375 L 34.667969 53.121094 C 38.375 52.667969 41.972656 51.226562 45.066406 48.828125 L 41.226562 44.988281 C 39.226562 46.425781 36.988281 47.359375 34.667969 47.734375 M 53.148438 29.332031 C 52.691406 25.625 51.226562 22.054688 48.828125 18.960938 L 45.039062 22.746094 C 46.480469 24.746094 47.386719 27.011719 47.761719 29.332031 M 41.464844 14.800781 L 29.332031 2.667969 L 29.332031 10.851562 C 18.828125 12.160156 10.667969 21.121094 10.667969 32 C 10.667969 42.878906 18.800781 51.839844 29.332031 53.148438 L 29.332031 47.761719 C 21.761719 46.480469 16 39.921875 16 32 C 16 24.078125 21.761719 17.519531 29.332031 16.238281 L 29.332031 26.667969 Z M 41.464844 14.800781 "/>
</g>
</svg>
