
<svg xmlns="http://www.w3.org/2000/svg" xmlns:xlink="http://www.w3.org/1999/xlink" width="64" height="64" viewBox="0 0 64 64" version="1.1">
<g id="surface1">
<path style=" stroke:none;fill-rule:nonzero;fill:rgb(100%,100%,100%);fill-opacity:1;" d="M 40 24 L 13.332031 24 L 13.332031 13.332031 L 40 13.332031 M 32 50.667969 C 27.582031 50.667969 24 47.085938 24 42.667969 C 24 38.25 27.582031 34.667969 32 34.667969 C 36.417969 34.667969 40 38.25 40 42.667969 C 40 47.085938 36.417969 50.667969 32 50.667969 M 45.332031 8 L 13.332031 8 C 10.375 8 8 10.398438 8 13.332031 L 8 50.667969 C 8 53.613281 10.386719 56 13.332031 56 L 50.667969 56 C 53.613281 56 56 53.613281 56 50.667969 L 56 18.667969 Z M 45.332031 8 "/>
</g>
</svg>
