
<svg xmlns="http://www.w3.org/2000/svg" xmlns:xlink="http://www.w3.org/1999/xlink" width="64" height="64" viewBox="0 0 64 64" version="1.1">
<g id="surface1">
<path style=" stroke:none;fill-rule:nonzero;fill:rgb(100%,100%,100%);fill-opacity:1;" d="M 32 42.667969 C 36.425781 42.667969 40 39.09375 40 34.667969 C 40 31.679688 38.375 29.066406 36 27.707031 L 10.105469 12.71875 L 24.851562 38.265625 C 26.1875 40.878906 28.878906 42.667969 32 42.667969 M 32 8 C 27.171875 8 22.667969 9.332031 18.746094 11.519531 L 24.347656 14.746094 C 26.667969 13.839844 29.332031 13.332031 32 13.332031 C 43.785156 13.332031 53.332031 22.878906 53.332031 34.667969 C 53.332031 40.558594 50.960938 45.894531 47.09375 49.734375 L 47.066406 49.734375 C 46.027344 50.773438 46.027344 52.453125 47.066406 53.492188 C 48.105469 54.535156 49.8125 54.535156 50.851562 53.519531 C 55.679688 48.691406 58.667969 42.027344 58.667969 34.667969 C 58.667969 20 46.667969 8 32 8 M 5.332031 34.667969 C 5.332031 42.027344 8.320312 48.691406 13.148438 53.519531 C 14.1875 54.535156 15.867188 54.535156 16.90625 53.492188 C 17.945312 52.453125 17.945312 50.773438 16.90625 49.734375 C 13.039062 45.867188 10.667969 40.558594 10.667969 34.667969 C 10.667969 32 11.171875 29.332031 12.105469 26.933594 L 8.878906 21.332031 C 6.667969 25.332031 5.332031 29.8125 5.332031 34.667969 Z M 5.332031 34.667969 "/>
</g>
</svg>
