
<svg xmlns="http://www.w3.org/2000/svg" xmlns:xlink="http://www.w3.org/1999/xlink" width="64" height="64" viewBox="0 0 64 64" version="1.1">
<g id="surface1">
<path style=" stroke:none;fill-rule:nonzero;fill:rgb(100%,100%,100%);fill-opacity:1;" d="M 32 42.667969 C 27.582031 42.667969 24 39.085938 24 34.667969 C 24 31.679688 25.625 29.066406 28 27.707031 L 53.894531 12.71875 L 39.148438 38.265625 C 37.8125 40.878906 35.121094 42.667969 32 42.667969 M 32 8 C 36.828125 8 41.332031 9.332031 45.253906 11.519531 L 39.652344 14.746094 C 37.332031 13.839844 34.667969 13.332031 32 13.332031 C 20.21875 13.332031 10.667969 22.882812 10.667969 34.667969 C 10.667969 40.558594 13.039062 45.894531 16.90625 49.734375 L 16.933594 49.734375 C 17.972656 50.773438 17.972656 52.453125 16.933594 53.492188 C 15.894531 54.535156 14.1875 54.535156 13.148438 53.519531 C 8.320312 48.691406 5.332031 42.027344 5.332031 34.667969 C 5.332031 19.9375 17.273438 8 32 8 M 58.667969 34.667969 C 58.667969 42.027344 55.679688 48.691406 50.851562 53.519531 C 49.8125 54.535156 48.132812 54.535156 47.09375 53.492188 C 46.054688 52.453125 46.054688 50.773438 47.09375 49.734375 C 50.960938 45.867188 53.332031 40.558594 53.332031 34.667969 C 53.332031 32 52.828125 29.332031 51.894531 26.933594 L 55.121094 21.332031 C 57.332031 25.332031 58.667969 29.8125 58.667969 34.667969 Z M 58.667969 34.667969 "/>
</g>
</svg>
