
<svg xmlns="http://www.w3.org/2000/svg" xmlns:xlink="http://www.w3.org/1999/xlink" width="64" height="64" viewBox="0 0 64 64" version="1.1">
<g id="surface1">
<path style=" stroke:none;fill-rule:nonzero;fill:rgb(100%,100%,100%);fill-opacity:1;" d="M 32 5.332031 C 46.726562 5.332031 58.667969 17.273438 58.667969 32 C 58.667969 46.726562 46.726562 58.667969 32 58.667969 C 17.273438 58.667969 5.332031 46.726562 5.332031 32 C 5.332031 17.273438 17.273438 5.332031 32 5.332031 M 32 10.667969 C 28.316406 10.667969 25.332031 13.652344 25.332031 17.332031 C 25.332031 21.015625 28.316406 24 32 24 C 35.683594 24 38.667969 21.015625 38.667969 17.332031 C 38.667969 13.652344 35.683594 10.667969 32 10.667969 M 11.734375 25.414062 C 10.585938 28.90625 12.507812 32.667969 16 33.8125 C 19.519531 34.933594 23.28125 33.039062 24.398438 29.519531 C 25.546875 26.027344 23.625 22.265625 20.132812 21.121094 C 16.640625 20 12.851562 21.894531 11.734375 25.414062 M 52.292969 25.332031 C 51.148438 21.894531 47.386719 20 43.894531 21.121094 C 40.375 22.238281 38.453125 26 39.601562 29.519531 C 40.746094 33.011719 44.507812 34.933594 48 33.785156 C 51.492188 32.667969 53.414062 28.878906 52.292969 25.332031 M 19.492188 49.226562 C 22.453125 51.414062 26.667969 50.746094 28.800781 47.761719 C 30.960938 44.773438 30.292969 40.613281 27.308594 38.453125 C 24.347656 36.292969 20.160156 36.960938 18 39.921875 C 15.839844 42.90625 16.507812 47.066406 19.492188 49.226562 M 44.535156 49.226562 C 47.519531 47.066406 48.1875 42.90625 46.027344 39.921875 C 43.867188 36.933594 39.679688 36.265625 36.71875 38.453125 C 33.734375 40.613281 33.066406 44.773438 35.226562 47.761719 C 37.332031 50.746094 41.574219 51.386719 44.535156 49.226562 M 32 28 C 29.789062 28 28 29.789062 28 32 C 28 34.210938 29.789062 36 32 36 C 34.210938 36 36 34.210938 36 32 C 36 29.789062 34.210938 28 32 28 Z M 32 28 "/>
</g>
</svg>
