
<svg xmlns="http://www.w3.org/2000/svg" xmlns:xlink="http://www.w3.org/1999/xlink" width="64" height="64" viewBox="0 0 64 64" version="1.1">
<g id="surface1">
<path style=" stroke:none;fill-rule:nonzero;fill:rgb(100%,100%,100%);fill-opacity:1;" d="M 21.332031 5.332031 L 42.667969 5.332031 C 45.613281 5.332031 48 7.722656 48 10.667969 L 48 53.332031 C 48 56.277344 45.613281 58.667969 42.667969 58.667969 L 21.332031 58.667969 C 18.386719 58.667969 16 56.277344 16 53.332031 L 16 10.667969 C 16 7.722656 18.386719 5.332031 21.332031 5.332031 M 21.332031 10.667969 L 21.332031 16 L 42.667969 16 L 42.667969 10.667969 L 21.332031 10.667969 M 42.667969 21.332031 L 21.332031 21.332031 L 21.332031 26.667969 L 42.667969 26.667969 L 42.667969 21.332031 M 42.667969 48 L 37.332031 48 L 37.332031 53.332031 L 42.667969 53.332031 Z M 42.667969 48 "/>
</g>
</svg>
