
<svg xmlns="http://www.w3.org/2000/svg" xmlns:xlink="http://www.w3.org/1999/xlink" width="64" height="64" viewBox="0 0 64 64" version="1.1">
<g id="surface1">
<path style=" stroke:none;fill-rule:nonzero;fill:rgb(100%,100%,100%);fill-opacity:1;" d="M 56 26.988281 L 37.921875 26.988281 L 45.226562 19.464844 C 37.945312 12.265625 26.160156 12 18.878906 19.199219 C 11.601562 26.425781 11.601562 38.078125 18.878906 45.332031 C 26.160156 52.535156 37.945312 52.535156 45.226562 45.332031 C 48.851562 41.734375 50.667969 37.546875 50.667969 32.265625 L 56 32.265625 C 56 37.546875 53.652344 44.398438 48.960938 49.039062 C 39.601562 58.320312 24.398438 58.320312 15.039062 49.039062 C 5.707031 39.785156 5.625 24.746094 14.988281 15.492188 C 24.347656 6.238281 39.359375 6.238281 48.71875 15.492188 L 56 8 L 56 26.988281 M 33.332031 21.332031 L 33.332031 32.667969 L 42.667969 38.214844 L 40.746094 41.441406 L 29.332031 34.667969 L 29.332031 21.332031 Z M 33.332031 21.332031 "/>
</g>
</svg>
